<svg width="21" height="15" viewBox="0 0 21 15" fill="none" xmlns="http://www.w3.org/2000/svg">
<path d="M11.3358 9.01333C9.14376 9.96409 7.71447 6.88699 7.71447 4.88147C7.71447 2.94521 9.19968 1.81002 11.13 2.6633C10.9689 2.39341 10.7139 2.00721 10.3916 1.63673H10.3912C10.1184 1.32225 9.58405 0.918532 9.58405 0.918532C9.50372 0.857658 9.51236 0.772932 9.60366 0.730257L10.2496 0.427754C10.3409 0.384872 10.4651 0.416139 10.5255 0.49682C10.5255 0.49682 11.0032 1.18381 11.5654 2.64598C13.3036 1.85778 14.9561 2.96181 14.9561 4.88152C14.956 6.88704 13.4171 9.93292 11.3358 9.01333Z" fill="#F67020"/>
<path d="M11.5193 2.0138C11.4189 2.00535 11.3302 1.91616 11.322 1.81557C11.322 1.81557 11.2575 1.03146 11.8026 0.484427C12.3495 -0.0627654 13.1303 0.00241258 13.1303 0.00241258C13.2308 0.0108644 13.3194 0.0999977 13.3277 0.20059C13.3277 0.20059 13.3935 0.985109 12.8476 1.53235C12.3019 2.07898 11.5193 2.0138 11.5193 2.0138Z" fill="#F67020"/>
<path d="M0.188488 9.76151C1.59544 9.4882 2.93234 9.29645 4.27546 9.17522C4.54252 9.15111 4.813 9.13898 5.07939 9.13898C6.82442 9.13898 8.24931 9.64324 9.62745 10.1309C10.0158 10.2683 10.583 10.4057 11.1835 10.5512C12.0601 10.7636 12.9665 10.9831 13.3939 11.2251C13.781 11.4444 13.9268 11.712 13.8271 12.0208C13.6818 12.4712 13.0814 12.6721 11.8806 12.6721C11.078 12.6721 10.0866 12.5827 9.03699 12.4881C8.86831 12.4729 8.69684 12.4575 8.52397 12.4422C9.95937 12.8296 11.184 13.0257 12.1699 13.0257C13.3022 13.0257 14.0408 12.762 14.2496 12.2831C14.3971 11.9448 14.2574 11.519 13.8562 11.0844L13.7967 11.0199L13.8818 10.9989C13.9259 10.988 18.3034 9.90447 19.1427 9.71992C19.3278 9.67922 19.5158 9.65853 19.7014 9.65853C20.3684 9.65853 20.9104 9.92417 20.9902 10.2901C21.0288 10.4669 20.9848 10.8136 20.2552 11.1495L13.8563 13.8511C13.6426 13.9301 13.4232 14.0217 13.1909 14.1186C12.4804 14.415 11.7458 14.7215 11.0632 14.7214C10.7791 14.7214 10.5073 14.6917 10.2322 14.6308C9.73685 14.5209 8.4858 14.1494 7.16141 13.7562C5.87214 13.3734 4.5389 12.9775 4.0055 12.8572C3.58689 12.7627 3.15544 12.7168 2.68654 12.7168C1.87812 12.7168 1.0848 12.853 0.275595 13.0049L0 13.0566V9.79796L0.188488 9.76151Z" fill="#F67020"/>
</svg>
